<?xml version="1.0" encoding="UTF-8"?>
<svg id="Layer_2" data-name="Layer 2" xmlns="http://www.w3.org/2000/svg" viewBox="0 0 531 61.88">
  <defs>
    <style>
      .cls-1 {
        fill: #fff;
      }

      .cls-1, .cls-2 {
        stroke-width: 0px;
      }

      .cls-2 {
        fill: #6c6;
      }
    </style>
  </defs>
  <g id="Layer_1-2" data-name="Layer 1">
    <g>
      <path class="cls-2" d="M59.04,40.89h-12.71l-2.05-12.71-7.42,12.63h-1.37c-.46-.68-.78-1.48-.98-2.39-.2-.91-.3-1.73-.3-2.47l.09-3.07c.11-1.59.17-2.93.17-4.01,0-1.82-.31-3.23-.94-4.22-.63-.99-1.65-1.69-3.07-2.09v-.09c2.96-.4,5.16-1.51,6.61-3.33,1.45-1.82,2.18-4.21,2.18-7.17,0-3.75-1.07-6.33-3.2-7.72-2.13-1.39-5.16-2.09-9.09-2.09H8.02L0,39.95h10.07l2.99-13.74h6.65c1.71,0,2.96.41,3.75,1.24.8.83,1.19,2.09,1.19,3.8,0,1.03-.06,2.28-.17,3.75l-.08,2.73c0,.46.06,1.01.17,1.66.11.66.28,1.12.51,1.41l7.25,7.68-6.23,13.4,13.31-7.85,9.98,7.59-1.88-12.63,11.52-8.11ZM29.44,13.92c0,3.47-2.25,5.21-6.74,5.21h-8.02l1.96-9.13h7.42c3.58,0,5.38,1.31,5.38,3.92ZM44.82,49.39l.89,5.98-4.63-3.52-1.46-1.11-1.58.93-5.73,3.38,2.52-5.41.78-1.68-1.27-1.35-2.89-3.06h6.99l.79-1.35,3.57-6.07.84,5.21.37,2.3h6.4l-4.45,3.13-1.38.97.25,1.67Z"/>
      <g>
        <path class="cls-1" d="M70.87,1h9.76c3.47,0,6.02.12,7.67.37,1.65.25,2.99.66,4.03,1.24,1.63.92,2.79,2.22,3.48,3.88.69,1.67.88,3.61.56,5.83-.36,2.58-1.28,4.76-2.74,6.55-1.47,1.79-3.4,3.07-5.81,3.86l6.12,16.63h-9.47l-5.33-15.63h-2.87l-2.2,15.63h-8.59L70.87,1ZM78.55,7.51l-1.42,10.07h2.38c3,0,5.06-.37,6.17-1.1,1.11-.73,1.8-2.05,2.07-3.95.26-1.88-.06-3.19-.96-3.92-.91-.73-2.86-1.1-5.86-1.1h-2.38Z"/>
        <path class="cls-1" d="M120.69,39.36l-.99-7.66h-11.64l-3.1,7.66h-8.33L113.15,1h10.14l5.74,38.36h-8.33ZM110.66,25.14h8.33l-1.71-17.32-6.63,17.32Z"/>
        <path class="cls-1" d="M133.84,16.79c.55-3.93,1.21-6.79,1.98-8.6.77-1.8,1.88-3.35,3.32-4.63,1.28-1.16,2.79-2.05,4.53-2.65,1.73-.61,3.62-.91,5.68-.91,3.92,0,6.89,1.04,8.93,3.13,2.04,2.08,2.89,4.98,2.56,8.69h-8.7c.1-1.45-.18-2.55-.83-3.29-.66-.74-1.66-1.11-3-1.11-1.67,0-2.9.47-3.68,1.4-.78.93-1.41,3.11-1.89,6.52l-1.36,9.66c-.48,3.4-.46,5.57.06,6.51.51.94,1.61,1.41,3.28,1.41,1.54,0,2.73-.46,3.57-1.4s1.41-2.41,1.7-4.42l.21-1.49h-4.5l.92-6.56h13.2l-2.92,20.78h-3.83l-.78-3.08c-1.31,1.25-2.68,2.16-4.09,2.74-1.41.58-3,.87-4.78.87-1.93,0-3.67-.31-5.21-.92s-2.79-1.5-3.73-2.64c-1.08-1.3-1.75-2.84-2.02-4.63s-.12-4.65.43-8.6l.96-6.79Z"/>
        <path class="cls-1" d="M161.46,39.36l5.39-38.36h26.14l-1.04,7.41h-17.55l-.96,6.87h11.98l-1.04,7.41h-11.98l-1.3,9.28h18.66l-1.04,7.41h-27.25Z"/>
        <path class="cls-1" d="M227.72,39.36h-9.06l-6.49-38.36h8.59l4.07,26.8,11.56-26.8h8.59l-17.27,38.36Z"/>
        <path class="cls-1" d="M259.33,38.11c-1.72.67-3.34,1.17-4.88,1.5s-3.01.5-4.4.5c-3.61,0-6.22-.98-7.85-2.95-1.63-1.96-2.19-4.8-1.67-8.51l.93-6.61c.51-3.66,1.77-6.45,3.78-8.38s4.65-2.9,7.92-2.9c3.05,0,5.33.9,6.84,2.69,1.51,1.79,2.04,4.25,1.6,7.38l-.85,6.05h-13.09l-.34,2.41c-.23,1.61.08,2.85.94,3.74.85.89,2.16,1.33,3.92,1.33.95,0,2-.15,3.17-.46,1.16-.31,2.46-.78,3.87-1.41l.12,5.61ZM248.24,22.73h6.88l.34-2.41c.22-1.55.09-2.72-.37-3.51-.47-.79-1.27-1.18-2.41-1.18-1.07,0-1.97.4-2.69,1.2-.73.8-1.19,1.91-1.38,3.31l-.36,2.59Z"/>
        <path class="cls-1" d="M263.39,39.36l3.93-27.93h6.78l-.85,6.05c1.53-2.17,3.08-3.81,4.66-4.92,1.58-1.11,3.2-1.71,4.87-1.79l-1.35,9.58c-1.86.1-3.47.36-4.83.78-1.36.42-2.56,1.04-3.59,1.86l-2.3,16.38h-7.32Z"/>
        <path class="cls-1" d="M280.75,36.16l4.16-5.1c.86,1.13,1.74,1.97,2.63,2.52.9.56,1.8.83,2.72.83.86,0,1.61-.22,2.25-.65s1-.97,1.09-1.6c.14-.97-.9-2.14-3.1-3.51-.76-.48-1.36-.86-1.8-1.15-2.31-1.52-3.79-2.87-4.45-4.06-.66-1.19-.87-2.65-.62-4.39.34-2.43,1.49-4.4,3.46-5.93,1.97-1.53,4.35-2.29,7.14-2.29,1.28,0,2.58.22,3.91.65,1.33.43,2.72,1.11,4.18,2.01l-4.03,4.89c-.72-.77-1.5-1.34-2.34-1.73-.84-.39-1.74-.58-2.69-.58-.86,0-1.54.16-2.04.49-.5.33-.79.8-.88,1.44-.11.8.96,1.92,3.2,3.36.39.26.7.45.9.59.19.12.49.31.9.56,1.78,1.11,3.07,2.06,3.87,2.84.68.7,1.15,1.53,1.42,2.49.27.96.32,2.02.16,3.18-.37,2.65-1.58,4.81-3.63,6.48-2.05,1.67-4.53,2.51-7.44,2.51-1.66,0-3.23-.32-4.72-.96-1.49-.64-2.91-1.6-4.27-2.88Z"/>
        <path class="cls-1" d="M301.44,39.36l3.93-27.93h7.38l-3.93,27.93h-7.38ZM306.09,6.3l.89-6.3h7.38l-.89,6.3h-7.38Z"/>
        <path class="cls-1" d="M336.19,27.75c-.58,4.12-1.92,7.19-4.03,9.21-2.1,2.03-5.01,3.04-8.72,3.04s-6.33-1.01-7.87-3.04c-1.54-2.02-2.01-5.1-1.44-9.21l.66-4.72c.58-4.12,1.92-7.18,4.02-9.2,2.1-2.02,5.01-3.02,8.72-3.02s6.33,1.01,7.87,3.02c1.54,2.02,2.02,5.08,1.44,9.2l-.66,4.72ZM321.95,25.4c-.55,3.9-.63,6.33-.26,7.3s1.23,1.46,2.58,1.46,2.31-.47,2.96-1.42c.64-.95,1.24-3.4,1.79-7.34.55-3.93.64-6.37.27-7.33-.37-.96-1.23-1.43-2.55-1.43s-2.34.49-2.99,1.46c-.65.97-1.24,3.41-1.79,7.3Z"/>
        <path class="cls-1" d="M338.32,39.36l3.93-27.93h7.32l-.75,5.3c1.7-2.03,3.33-3.53,4.89-4.48,1.56-.96,3.14-1.44,4.74-1.44,1.92,0,3.31.58,4.18,1.76.87,1.17,1.16,2.82.86,4.96l-3.07,21.83h-7.35l2.45-17.43c.26-1.83.25-3.01-.02-3.55-.27-.54-.87-.81-1.8-.81-.72,0-1.54.24-2.44.71-.9.47-1.88,1.17-2.95,2.09l-2.67,18.99h-7.32Z"/>
        <path class="cls-1" d="M381.26,16.79c.55-3.93,1.21-6.79,1.98-8.6.77-1.8,1.88-3.35,3.32-4.63,1.32-1.16,2.84-2.05,4.56-2.65,1.73-.61,3.6-.91,5.64-.91,3.73,0,6.68,1.03,8.85,3.1,2.18,2.07,3.05,4.61,2.63,7.61l-.32,2.31h-8.51c.21-1.96.02-3.39-.56-4.28-.58-.89-1.62-1.33-3.13-1.33-1.67,0-2.9.45-3.67,1.35-.77.9-1.41,3.09-1.89,6.57l-1.36,9.66c-.47,3.33-.45,5.48.05,6.46.5.97,1.6,1.46,3.29,1.46,1.59,0,2.79-.47,3.62-1.42.82-.95,1.39-2.52,1.7-4.73l.08-.56h8.54l-.36,2.56c-.48,3.45-2.07,6.25-4.76,8.39-2.69,2.14-5.98,3.22-9.86,3.22-2.04,0-3.83-.3-5.38-.91-1.55-.61-2.83-1.49-3.82-2.65-1.08-1.28-1.75-2.82-2.02-4.63-.26-1.8-.12-4.67.43-8.6l.96-6.79Z"/>
        <path class="cls-1" d="M431.86,27.75c-.58,4.12-1.92,7.19-4.03,9.21-2.1,2.03-5.01,3.04-8.72,3.04s-6.33-1.01-7.87-3.04c-1.54-2.02-2.01-5.1-1.44-9.21l.66-4.72c.58-4.12,1.92-7.18,4.02-9.2,2.1-2.02,5.01-3.02,8.72-3.02s6.33,1.01,7.87,3.02c1.54,2.02,2.02,5.08,1.44,9.2l-.66,4.72ZM417.62,25.4c-.55,3.9-.63,6.33-.26,7.3s1.23,1.46,2.58,1.46,2.31-.47,2.96-1.42c.64-.95,1.24-3.4,1.79-7.34.55-3.93.64-6.37.27-7.33-.37-.96-1.23-1.43-2.55-1.43s-2.34.49-2.99,1.46c-.65.97-1.24,3.41-1.79,7.3Z"/>
        <path class="cls-1" d="M433.31,39.36l3.93-27.93h7.32l-.75,5.3c1.7-2.03,3.33-3.53,4.89-4.48,1.56-.96,3.14-1.44,4.74-1.44,1.92,0,3.31.58,4.18,1.76.87,1.17,1.16,2.82.86,4.96l-3.07,21.83h-7.35l2.45-17.43c.26-1.83.25-3.01-.02-3.55-.27-.54-.87-.81-1.8-.81-.72,0-1.54.24-2.44.71-.9.47-1.88,1.17-2.95,2.09l-2.67,18.99h-7.32Z"/>
        <path class="cls-1" d="M469.86,27.86c-.33,2.34-.24,3.9.26,4.68.5.78,1.59,1.17,3.27,1.17.1,0,.27,0,.5-.03.23-.02.4-.03.52-.03l-.87,6.18c-.39.05-.8.08-1.24.1-.44.02-1.06.03-1.85.03-3.55,0-5.95-.7-7.19-2.09-1.24-1.39-1.61-3.83-1.12-7.32l1.94-13.81h-4.14l.75-5.3h4.14l1.41-10.02h7.35l-1.41,10.02h5.15l-.75,5.3h-5.15l-1.56,11.12Z"/>
        <path class="cls-1" d="M476.68,39.36l3.93-27.93h6.78l-.85,6.05c1.53-2.17,3.08-3.81,4.66-4.92,1.58-1.11,3.2-1.71,4.87-1.79l-1.35,9.58c-1.86.1-3.47.36-4.83.78-1.36.42-2.56,1.04-3.59,1.86l-2.3,16.38h-7.32Z"/>
        <path class="cls-1" d="M517.6,27.75c-.58,4.12-1.92,7.19-4.03,9.21-2.1,2.03-5.01,3.04-8.72,3.04s-6.33-1.01-7.87-3.04c-1.54-2.02-2.01-5.1-1.44-9.21l.66-4.72c.58-4.12,1.92-7.18,4.02-9.2,2.1-2.02,5.01-3.02,8.72-3.02s6.33,1.01,7.87,3.02c1.54,2.02,2.02,5.08,1.44,9.2l-.66,4.72ZM503.36,25.4c-.55,3.9-.63,6.33-.26,7.3s1.23,1.46,2.58,1.46,2.31-.47,2.96-1.42c.64-.95,1.24-3.4,1.79-7.34.55-3.93.64-6.37.27-7.33-.37-.96-1.23-1.43-2.55-1.43s-2.34.49-2.99,1.46c-.65.97-1.24,3.41-1.79,7.3Z"/>
        <path class="cls-1" d="M518.09,39.36l5.53-39.36h7.38l-5.53,39.36h-7.38Z"/>
      </g>
    </g>
  </g>
</svg>