<?xml version="1.0" encoding="UTF-8"?>
<svg id="Layer_2" data-name="Layer 2" xmlns="http://www.w3.org/2000/svg" viewBox="0 0 61.5 49.43">
  <defs>
    <style>
      .cls-1 {
        fill: #fc0;
        stroke-width: 0px;
      }

      .cls-2 {
        fill: #039;
        stroke: #000;
        stroke-miterlimit: 10;
        stroke-width: 3px;
      }
    </style>
  </defs>
  <g id="Layer_1-2" data-name="Layer 1">
    <g>
      <path class="cls-2" d="M46.8,1.5H14.7c-3.53,0-6.52,2.53-7.1,6.01l-2.06,12.26c-2.4.88-4.04,3.16-4.04,5.81v6.06c0,2.04,1.17,3.81,2.89,4.68v4.67c0,3.55,2.68,6.59,6.09,6.91.22.02.44.03.65.03,3.72,0,6.75-3.03,6.75-6.75v-4.29h25.73v4.09c0,3.55,2.68,6.59,6.09,6.91.22.02.44.03.66.03,3.72,0,6.75-3.03,6.75-6.75v-4.86c1.72-.87,2.89-2.64,2.89-4.68v-6.06c0-2.66-1.64-4.93-4.04-5.81l-2.06-12.26c-.58-3.48-3.57-6.01-7.1-6.01h0Z"/>
      <g>
        <polygon class="cls-1" points="30.75 31.01 30.35 29.79 29.07 29.79 30.11 29.03 29.71 27.81 30.75 28.57 31.79 27.81 31.39 29.03 32.43 29.79 31.15 29.79 30.75 31.01"/>
        <polygon class="cls-1" points="25.11 29.5 25.38 28.24 24.26 27.6 25.54 27.47 25.81 26.21 26.33 27.38 27.61 27.25 26.65 28.11 27.18 29.28 26.06 28.64 25.11 29.5"/>
        <polygon class="cls-1" points="20.98 25.37 21.84 24.42 21.2 23.3 22.37 23.83 23.23 22.87 23.1 24.15 24.27 24.67 23.01 24.94 22.88 26.22 22.24 25.1 20.98 25.37"/>
        <polygon class="cls-1" points="19.47 19.73 20.69 19.33 20.69 18.05 21.44 19.09 22.67 18.69 21.91 19.73 22.67 20.77 21.44 20.37 20.69 21.41 20.69 20.13 19.47 19.73"/>
        <polygon class="cls-1" points="20.98 14.09 22.24 14.36 22.88 13.24 23.01 14.52 24.27 14.79 23.1 15.31 23.23 16.59 22.37 15.63 21.2 16.16 21.84 15.04 20.98 14.09"/>
        <polygon class="cls-1" points="25.11 9.96 26.06 10.82 27.18 10.18 26.65 11.35 27.61 12.21 26.33 12.08 25.81 13.25 25.54 11.99 24.26 11.86 25.38 11.22 25.11 9.96"/>
        <polygon class="cls-1" points="30.75 8.45 31.15 9.67 32.43 9.67 31.39 10.42 31.79 11.65 30.75 10.89 29.71 11.65 30.11 10.42 29.07 9.67 30.35 9.67 30.75 8.45"/>
        <polygon class="cls-1" points="36.39 9.96 36.12 11.22 37.24 11.86 35.96 11.99 35.69 13.25 35.17 12.08 33.89 12.21 34.84 11.35 34.32 10.18 35.43 10.82 36.39 9.96"/>
        <polygon class="cls-1" points="40.52 14.09 39.66 15.04 40.3 16.16 39.13 15.63 38.27 16.59 38.4 15.31 37.23 14.79 38.49 14.52 38.62 13.24 39.26 14.36 40.52 14.09"/>
        <polygon class="cls-1" points="42.03 19.73 40.81 20.13 40.81 21.41 40.05 20.37 38.83 20.77 39.59 19.73 38.83 18.69 40.05 19.09 40.81 18.05 40.81 19.33 42.03 19.73"/>
        <polygon class="cls-1" points="40.52 25.37 39.26 25.1 38.62 26.22 38.48 24.94 37.23 24.67 38.4 24.15 38.27 22.87 39.13 23.82 40.3 23.3 39.66 24.41 40.52 25.37"/>
        <polygon class="cls-1" points="36.39 29.5 35.44 28.64 34.32 29.28 34.85 28.11 33.89 27.25 35.17 27.38 35.69 26.21 35.96 27.47 37.24 27.6 36.12 28.24 36.39 29.5"/>
      </g>
    </g>
  </g>
</svg>