<?xml version="1.0" encoding="UTF-8"?>
<svg id="Layer_2" data-name="Layer 2" xmlns="http://www.w3.org/2000/svg" viewBox="0 0 61.5 49.43">
  <defs>
    <style>
      .cls-1 {
        fill: #be0b31;
      }

      .cls-1, .cls-2, .cls-3, .cls-4 {
        stroke-width: 0px;
      }

      .cls-2 {
        fill: #fffffd;
      }

      .cls-3 {
        fill: #fff;
      }

      .cls-4 {
        fill: #002768;
      }

      .cls-5 {
        fill: none;
        stroke: #000;
        stroke-miterlimit: 10;
        stroke-width: 3px;
      }
    </style>
  </defs>
  <g id="Layer_1-2" data-name="Layer 1">
    <g>
      <g>
        <path class="cls-1" d="M53.09,5.18H8.41c1.03-1.85,2.83-3.16,4.95-3.56h34.78c2.12.4,3.92,1.71,4.95,3.56Z"/>
        <path class="cls-2" d="M54.11,8.74H7.39l.21-1.24c.14-.84.42-1.61.81-2.32h44.68c.39.71.67,1.48.81,2.32l.21,1.24Z"/>
        <polygon class="cls-1" points="54.71 12.3 6.79 12.3 7.39 8.74 54.11 8.74 54.71 12.3"/>
        <polygon class="cls-2" points="55.31 15.87 6.19 15.87 6.79 12.3 54.71 12.3 55.31 15.87"/>
        <polygon class="cls-1" points="55.9 19.43 5.6 19.43 6.19 15.87 55.31 15.87 55.9 19.43"/>
        <path class="cls-2" d="M59.44,22.99H2.06c.67-1.49,1.91-2.66,3.48-3.23l.06-.33h50.3l.06.33c1.57.57,2.81,1.74,3.48,3.23Z"/>
        <path class="cls-1" d="M60,25.58v.97H1.5v-.97c0-.92.2-1.8.56-2.59h57.38c.36.79.56,1.67.56,2.59Z"/>
        <rect class="cls-2" x="1.5" y="26.55" width="58.5" height="3.57"/>
        <path class="cls-1" d="M60,30.12v1.52c0,.72-.15,1.41-.42,2.04H1.92c-.27-.63-.42-1.32-.42-2.04v-1.52h58.5Z"/>
        <path class="cls-2" d="M59.58,33.68c-.48,1.14-1.36,2.08-2.47,2.64v.92h-13.5v-.35h-25.73v.35H4.38v-.92c-1.1-.56-1.98-1.5-2.46-2.64h57.66Z"/>
        <rect class="cls-1" x="4.38" y="37.24" width="13.5" height="3.56"/>
        <rect class="cls-1" x="43.61" y="37.24" width="13.5" height="3.56"/>
        <path class="cls-2" d="M4.38,40.8h13.5v.38c0,1.15-.29,2.24-.81,3.19H5.26c-.56-1-.88-2.16-.88-3.38v-.19Z"/>
        <path class="cls-2" d="M57.11,40.8v.38c0,1.15-.29,2.24-.81,3.19h-11.81c-.56-1.01-.88-2.17-.88-3.39v-.18h13.5Z"/>
        <path class="cls-1" d="M5.26,44.37h11.81c-1.13,2.11-3.37,3.56-5.94,3.56-.21,0-.43-.01-.65-.03-2.25-.22-4.17-1.6-5.22-3.53Z"/>
        <path class="cls-1" d="M56.3,44.37c-1.13,2.11-3.37,3.56-5.94,3.56-.21,0-.43-.01-.65-.03-2.25-.22-4.17-1.6-5.22-3.53h11.81Z"/>
      </g>
      <polygon class="cls-4" points="32.26 26.55 2.06 26.55 9.99 2.03 32.26 2.03 32.26 26.55"/>
      <g>
        <polygon class="cls-3" points="29.93 22.9 30.25 23.81 31.21 23.83 30.44 24.4 30.72 25.32 29.93 24.77 29.15 25.32 29.43 24.4 28.66 23.83 29.62 23.81 29.93 22.9"/>
        <polygon class="cls-3" points="24.69 22.9 25.01 23.81 25.97 23.83 25.2 24.4 25.48 25.32 24.69 24.77 23.91 25.32 24.19 24.4 23.42 23.83 24.38 23.81 24.69 22.9"/>
        <polygon class="cls-3" points="27.31 20.63 27.63 21.54 28.59 21.55 27.82 22.13 28.1 23.05 27.31 22.5 26.53 23.05 26.81 22.13 26.04 21.55 27 21.54 27.31 20.63"/>
        <polygon class="cls-3" points="29.93 17.98 30.25 18.89 31.21 18.9 30.44 19.48 30.72 20.4 29.93 19.85 29.15 20.4 29.43 19.48 28.66 18.9 29.62 18.89 29.93 17.98"/>
        <polygon class="cls-3" points="24.69 17.98 25.01 18.89 25.97 18.9 25.2 19.48 25.48 20.4 24.69 19.85 23.91 20.4 24.19 19.48 23.42 18.9 24.38 18.89 24.69 17.98"/>
        <polygon class="cls-3" points="27.31 15.7 27.63 16.61 28.59 16.63 27.82 17.2 28.1 18.12 27.31 17.57 26.53 18.12 26.81 17.2 26.04 16.63 27 16.61 27.31 15.7"/>
        <polygon class="cls-3" points="29.93 13.11 30.25 14.02 31.21 14.04 30.44 14.62 30.72 15.54 29.93 14.98 29.15 15.54 29.43 14.62 28.66 14.04 29.62 14.02 29.93 13.11"/>
        <polygon class="cls-3" points="24.69 13.11 25.01 14.02 25.97 14.04 25.2 14.62 25.48 15.54 24.69 14.98 23.91 15.54 24.19 14.62 23.42 14.04 24.38 14.02 24.69 13.11"/>
        <polygon class="cls-3" points="19.44 22.9 19.75 23.81 20.71 23.83 19.94 24.4 20.22 25.32 19.44 24.77 18.65 25.32 18.93 24.4 18.16 23.83 19.12 23.81 19.44 22.9"/>
        <polygon class="cls-3" points="19.44 17.98 19.75 18.89 20.71 18.9 19.94 19.48 20.22 20.4 19.44 19.85 18.65 20.4 18.93 19.48 18.16 18.9 19.12 18.89 19.44 17.98"/>
        <polygon class="cls-3" points="19.44 13.11 19.75 14.02 20.71 14.04 19.94 14.62 20.22 15.54 19.44 14.98 18.65 15.54 18.93 14.62 18.16 14.04 19.12 14.02 19.44 13.11"/>
        <polygon class="cls-3" points="27.31 10.84 27.63 11.75 28.59 11.76 27.82 12.34 28.1 13.26 27.31 12.71 26.53 13.26 26.81 12.34 26.04 11.76 27 11.75 27.31 10.84"/>
        <polygon class="cls-3" points="22.15 20.63 22.46 21.54 23.42 21.55 22.65 22.13 22.93 23.05 22.15 22.5 21.36 23.05 21.64 22.13 20.87 21.55 21.83 21.54 22.15 20.63"/>
        <polygon class="cls-3" points="22.15 15.7 22.46 16.61 23.42 16.63 22.65 17.2 22.93 18.12 22.15 17.57 21.36 18.12 21.64 17.2 20.87 16.63 21.83 16.61 22.15 15.7"/>
        <polygon class="cls-3" points="22.15 10.84 22.46 11.75 23.42 11.76 22.65 12.34 22.93 13.26 22.15 12.71 21.36 13.26 21.64 12.34 20.87 11.76 21.83 11.75 22.15 10.84"/>
        <polygon class="cls-3" points="14.18 22.9 14.49 23.81 15.45 23.83 14.68 24.4 14.97 25.32 14.18 24.77 13.39 25.32 13.67 24.4 12.9 23.83 13.87 23.81 14.18 22.9"/>
        <polygon class="cls-3" points="14.18 17.98 14.49 18.89 15.45 18.9 14.68 19.48 14.97 20.4 14.18 19.85 13.39 20.4 13.67 19.48 12.9 18.9 13.87 18.89 14.18 17.98"/>
        <polygon class="cls-3" points="14.18 13.11 14.49 14.02 15.45 14.04 14.68 14.62 14.97 15.54 14.18 14.98 13.39 15.54 13.67 14.62 12.9 14.04 13.87 14.02 14.18 13.11"/>
        <polygon class="cls-3" points="16.89 20.63 17.2 21.54 18.16 21.55 17.39 22.13 17.68 23.05 16.89 22.5 16.1 23.05 16.38 22.13 15.61 21.55 16.58 21.54 16.89 20.63"/>
        <polygon class="cls-3" points="16.89 15.7 17.2 16.61 18.16 16.63 17.39 17.2 17.68 18.12 16.89 17.57 16.1 18.12 16.38 17.2 15.61 16.63 16.58 16.61 16.89 15.7"/>
        <polygon class="cls-3" points="16.89 10.84 17.2 11.75 18.16 11.76 17.39 12.34 17.68 13.26 16.89 12.71 16.1 13.26 16.38 12.34 15.61 11.76 16.58 11.75 16.89 10.84"/>
        <polygon class="cls-3" points="29.93 8.28 30.25 9.19 31.21 9.2 30.44 9.78 30.72 10.7 29.93 10.15 29.15 10.7 29.43 9.78 28.66 9.2 29.62 9.19 29.93 8.28"/>
        <polygon class="cls-3" points="24.69 8.28 25.01 9.19 25.97 9.2 25.2 9.78 25.48 10.7 24.69 10.15 23.91 10.7 24.19 9.78 23.42 9.2 24.38 9.19 24.69 8.28"/>
        <polygon class="cls-3" points="19.44 8.28 19.75 9.19 20.71 9.2 19.94 9.78 20.22 10.7 19.44 10.15 18.65 10.7 18.93 9.78 18.16 9.2 19.12 9.19 19.44 8.28"/>
        <polygon class="cls-3" points="27.31 6 27.63 6.91 28.59 6.93 27.82 7.5 28.1 8.42 27.31 7.87 26.53 8.42 26.81 7.5 26.04 6.93 27 6.91 27.31 6"/>
        <polygon class="cls-3" points="22.15 6 22.46 6.91 23.42 6.93 22.65 7.5 22.93 8.42 22.15 7.87 21.36 8.42 21.64 7.5 20.87 6.93 21.83 6.91 22.15 6"/>
        <polygon class="cls-3" points="14.18 8.28 14.49 9.19 15.45 9.2 14.68 9.78 14.97 10.7 14.18 10.15 13.39 10.7 13.67 9.78 12.9 9.2 13.87 9.19 14.18 8.28"/>
        <polygon class="cls-3" points="16.89 6 17.2 6.91 18.16 6.93 17.39 7.5 17.68 8.42 16.89 7.87 16.1 8.42 16.38 7.5 15.61 6.93 16.58 6.91 16.89 6"/>
        <polygon class="cls-3" points="8.92 22.9 9.23 23.81 10.19 23.83 9.43 24.4 9.71 25.32 8.92 24.77 8.13 25.32 8.42 24.4 7.65 23.83 8.61 23.81 8.92 22.9"/>
        <polygon class="cls-3" points="8.92 17.98 9.23 18.89 10.19 18.9 9.43 19.48 9.71 20.4 8.92 19.85 8.13 20.4 8.42 19.48 7.65 18.9 8.61 18.89 8.92 17.98"/>
        <polygon class="cls-3" points="8.92 13.11 9.23 14.02 10.19 14.04 9.43 14.62 9.71 15.54 8.92 14.98 8.13 15.54 8.42 14.62 7.65 14.04 8.61 14.02 8.92 13.11"/>
        <polygon class="cls-3" points="11.63 20.63 11.94 21.54 12.9 21.55 12.14 22.13 12.42 23.05 11.63 22.5 10.84 23.05 11.13 22.13 10.36 21.55 11.32 21.54 11.63 20.63"/>
        <polygon class="cls-3" points="11.63 15.7 11.94 16.61 12.9 16.63 12.14 17.2 12.42 18.12 11.63 17.57 10.84 18.12 11.13 17.2 10.36 16.63 11.32 16.61 11.63 15.7"/>
        <polygon class="cls-3" points="11.63 10.84 11.94 11.75 12.9 11.76 12.14 12.34 12.42 13.26 11.63 12.71 10.84 13.26 11.13 12.34 10.36 11.76 11.32 11.75 11.63 10.84"/>
        <polygon class="cls-3" points="8.92 8.28 9.23 9.19 10.19 9.2 9.43 9.78 9.71 10.7 8.92 10.15 8.13 10.7 8.42 9.78 7.65 9.2 8.61 9.19 8.92 8.28"/>
        <polygon class="cls-3" points="29.93 3.4 30.25 4.31 31.21 4.33 30.44 4.91 30.72 5.83 29.93 5.27 29.15 5.83 29.43 4.91 28.66 4.33 29.62 4.31 29.93 3.4"/>
        <polygon class="cls-3" points="24.69 3.4 25.01 4.31 25.97 4.33 25.2 4.91 25.48 5.83 24.69 5.27 23.91 5.83 24.19 4.91 23.42 4.33 24.38 4.31 24.69 3.4"/>
        <polygon class="cls-3" points="19.44 3.4 19.75 4.31 20.71 4.33 19.94 4.91 20.22 5.83 19.44 5.27 18.65 5.83 18.93 4.91 18.16 4.33 19.12 4.31 19.44 3.4"/>
        <polygon class="cls-3" points="14.18 3.4 14.49 4.31 15.45 4.33 14.68 4.91 14.97 5.83 14.18 5.27 13.39 5.83 13.67 4.91 12.9 4.33 13.87 4.31 14.18 3.4"/>
        <polygon class="cls-3" points="11.63 6 11.94 6.91 12.9 6.93 12.14 7.5 12.42 8.42 11.63 7.87 10.84 8.42 11.13 7.5 10.36 6.93 11.32 6.91 11.63 6"/>
        <polygon class="cls-3" points="3.66 22.9 3.97 23.81 4.94 23.83 4.17 24.4 4.45 25.32 3.66 24.77 2.88 25.32 3.16 24.4 2.39 23.83 3.35 23.81 3.66 22.9"/>
        <polygon class="cls-3" points="6.37 20.63 6.69 21.54 7.65 21.55 6.88 22.13 7.16 23.05 6.37 22.5 5.59 23.05 5.87 22.13 5.1 21.55 6.06 21.54 6.37 20.63"/>
        <polygon class="cls-3" points="6.37 15.7 6.69 16.61 7.65 16.63 6.88 17.2 7.16 18.12 6.37 17.57 5.59 18.12 5.87 17.2 5.1 16.63 6.06 16.61 6.37 15.7"/>
      </g>
      <path class="cls-5" d="M46.8,1.5H14.7c-3.53,0-6.52,2.53-7.1,6.01l-2.06,12.26c-2.4.88-4.04,3.16-4.04,5.81v6.06c0,2.04,1.17,3.81,2.89,4.68v4.67c0,3.55,2.68,6.59,6.09,6.91.22.02.44.03.65.03,3.72,0,6.75-3.03,6.75-6.75v-4.29h25.73v4.09c0,3.55,2.68,6.59,6.09,6.91.22.02.44.03.66.03,3.72,0,6.75-3.03,6.75-6.75v-4.86c1.72-.87,2.89-2.64,2.89-4.68v-6.06c0-2.66-1.64-4.93-4.04-5.81l-2.06-12.26c-.58-3.48-3.57-6.01-7.1-6.01h0Z"/>
    </g>
  </g>
</svg>