<?xml version="1.0" encoding="UTF-8"?>
<svg id="Layer_2" data-name="Layer 2" xmlns="http://www.w3.org/2000/svg" viewBox="0 0 61.5 49.43">
  <defs>
    <style>
      .cls-1 {
        fill: #fff;
        stroke: #000;
        stroke-miterlimit: 10;
        stroke-width: 3px;
      }

      .cls-2 {
        fill: #bc002d;
        stroke-width: 0px;
      }
    </style>
  </defs>
  <g id="Layer_1-2" data-name="Layer 1">
    <g>
      <path class="cls-1" d="M46.8,1.5H14.7c-3.53,0-6.52,2.53-7.1,6.01l-2.06,12.26c-2.4.88-4.04,3.16-4.04,5.81v6.06c0,2.04,1.17,3.81,2.89,4.68v4.67c0,3.55,2.68,6.59,6.09,6.91.22.02.44.03.65.03,3.72,0,6.75-3.03,6.75-6.75v-4.29h25.73v4.09c0,3.55,2.68,6.59,6.09,6.91.22.02.44.03.66.03,3.72,0,6.75-3.03,6.75-6.75v-4.86c1.72-.87,2.89-2.64,2.89-4.68v-6.06c0-2.66-1.64-4.93-4.04-5.81l-2.06-12.26c-.58-3.48-3.57-6.01-7.1-6.01h0Z"/>
      <circle class="cls-2" cx="30.75" cy="20.02" r="11.67"/>
    </g>
  </g>
</svg>