<?xml version="1.0" encoding="UTF-8"?>
<svg id="Layer_2" data-name="Layer 2" xmlns="http://www.w3.org/2000/svg" version="1.1" viewBox="0 0 378.8 41.8">
  <defs>
    <style>
      .cls-1 {
        fill: #6c6;
      }

      .cls-1, .cls-2 {
        stroke-width: 0px;
      }

      .cls-2 {
        fill: #fff;
      }
    </style>
  </defs>
  <g>
    <path class="cls-1" d="M21.5,40h-8.9L1,2h8.4l7.7,26.6L24.8,2h8.4l-11.7,38Z"/>
    <path class="cls-1" d="M33.1,17.6c0-3.9.3-6.7.8-8.5.5-1.8,1.4-3.3,2.6-4.6,1.1-1.2,2.5-2,4.1-2.6,1.6-.6,3.4-.9,5.4-.9,3.7,0,6.7,1,9.1,3.1,2.4,2,3.6,4.6,3.6,7.5v2.3h-8.4c0-1.9-.4-3.4-1.1-4.2-.7-.9-1.8-1.3-3.2-1.3s-2.8.4-3.4,1.3-1,3.1-1,6.5v9.6c0,3.3.3,5.4.9,6.4.6,1,1.8,1.4,3.4,1.4s2.7-.5,3.4-1.4c.7-.9,1-2.5,1-4.7v-.6h8.4v2.5c0,3.4-1.2,6.2-3.5,8.3-2.3,2.1-5.4,3.2-9.2,3.2s-3.8-.3-5.4-.9c-1.6-.6-3-1.5-4.1-2.6-1.2-1.3-2.1-2.8-2.6-4.6-.5-1.8-.8-4.6-.8-8.5v-6.7Z"/>
    <path class="cls-1" d="M83.5,40.5v-9.9h-14.4v-8.2L80.9,2h10.3v22h3v6.5h-3v9.9h-7.8ZM83.5,24V8l-9.3,16h9.3Z"/>
  </g>
  <g>
    <path class="cls-2" d="M127.2,40.4h-9l-6.4-38.4h8.5l4,26.8,11.5-26.8h8.5l-17.2,38.4Z"/>
    <path class="cls-2" d="M141.7,40.4l3.9-27.9h7.3l-3.9,27.9h-7.3ZM146.4,7.4l.9-6.3h7.3l-.9,6.3h-7.3Z"/>
    <path class="cls-2" d="M152.7,37.2l4.1-5.1c.8,1.1,1.7,2,2.6,2.5.9.6,1.8.8,2.7.8s1.6-.2,2.2-.7c.6-.4,1-1,1.1-1.6.1-1-.9-2.1-3.1-3.5-.8-.5-1.3-.9-1.8-1.2-2.3-1.5-3.7-2.9-4.4-4.1-.7-1.2-.9-2.7-.6-4.4.3-2.4,1.5-4.4,3.4-5.9,1.9-1.5,4.3-2.3,7.1-2.3s2.6.2,3.9.7c1.3.4,2.7,1.1,4.1,2l-4,4.9c-.7-.8-1.5-1.3-2.3-1.7-.8-.4-1.7-.6-2.7-.6s-1.5.2-2,.5c-.5.3-.8.8-.9,1.4-.1.8.9,1.9,3.2,3.4.4.3.7.5.9.6.2.1.5.3.9.6,1.8,1.1,3,2.1,3.8,2.8.7.7,1.1,1.5,1.4,2.5.3,1,.3,2,.2,3.2-.4,2.6-1.6,4.8-3.6,6.5-2,1.7-4.5,2.5-7.4,2.5s-3.2-.3-4.7-1c-1.5-.6-2.9-1.6-4.2-2.9Z"/>
    <path class="cls-2" d="M200.2,12.5l-3.9,27.9h-7.3l.7-5.3c-1.7,2-3.3,3.6-4.8,4.5-1.5,1-3.1,1.4-4.7,1.4s-3.2-.6-4.1-1.7c-.9-1.1-1.3-2.6-1-4.5l3.2-22.4h7.3l-2.4,17.4c-.3,1.8-.2,3,0,3.5.3.5.9.8,1.8.8s1.5-.2,2.3-.7c.9-.5,1.9-1.2,2.9-2.1l2.7-19h7.3Z"/>
    <path class="cls-2" d="M215.4,37.3c-1.5,1.3-2.9,2.2-4.3,2.8-1.3.6-2.7.9-4.1.9-2.1,0-3.7-.7-4.8-2.1-1.1-1.4-1.5-3.3-1.1-5.6.4-3.1,1.9-5.6,4.5-7.5,2.6-1.9,6.2-3.1,10.9-3.8l.3-2.2c.1-.8-.1-1.5-.7-2-.6-.5-1.5-.8-2.6-.8s-2,.2-3.1.7c-1.1.5-2.3,1.2-3.7,2.1l-2.8-4.4c1.6-1.2,3.3-2.1,5.1-2.7,1.8-.6,3.7-.9,5.7-.9,3.5,0,6,.8,7.5,2.4,1.5,1.6,2.1,4,1.7,7.2l-1.7,12c0,.4,0,.8.2,1.1.2.3.5.5.9.6l-.8,5.5c-.1,0-.3,0-.5,0-.2,0-.4,0-.7,0-1.5,0-2.7-.3-3.7-.8s-1.7-1.4-2.2-2.6ZM215.9,26.3c-2.2.3-3.9.9-5.3,2-1.4,1-2.2,2.3-2.4,3.7-.1,1,0,1.8.5,2.5.5.6,1.1.9,2,.9s2.3-.5,3.1-1.5c.8-1,1.4-2.5,1.6-4.3l.5-3.3Z"/>
    <path class="cls-2" d="M225.7,40.4l5.5-39.4h7.3l-5.5,39.4h-7.3Z"/>
    <path class="cls-2" d="M238.2,40.4l3.9-27.9h7.3l-3.9,27.9h-7.3ZM242.8,7.4l.9-6.3h7.3l-.9,6.3h-7.3Z"/>
    <path class="cls-2" d="M249.2,40.4l.7-5.3,13.3-17.1h-10.3l.8-5.6h18.8l-.7,5-13.2,17.1h10.8l-.8,5.8h-19.3Z"/>
    <path class="cls-2" d="M285.7,37.3c-1.5,1.3-2.9,2.2-4.3,2.8-1.3.6-2.7.9-4.1.9-2.1,0-3.7-.7-4.8-2.1-1.1-1.4-1.5-3.3-1.1-5.6.4-3.1,1.9-5.6,4.5-7.5,2.6-1.9,6.2-3.1,10.9-3.8l.3-2.2c.1-.8-.1-1.5-.7-2-.6-.5-1.5-.8-2.6-.8s-2,.2-3.1.7c-1.1.5-2.3,1.2-3.7,2.1l-2.8-4.4c1.6-1.2,3.3-2.1,5.1-2.7,1.8-.6,3.7-.9,5.7-.9,3.5,0,6,.8,7.5,2.4,1.5,1.6,2.1,4,1.7,7.2l-1.7,12c0,.4,0,.8.2,1.1.2.3.5.5.9.6l-.8,5.5c-.1,0-.3,0-.5,0-.2,0-.4,0-.7,0-1.5,0-2.7-.3-3.7-.8s-1.7-1.4-2.2-2.6ZM286.2,26.3c-2.2.3-3.9.9-5.3,2-1.4,1-2.2,2.3-2.4,3.7-.1,1,0,1.8.5,2.5.5.6,1.1.9,2,.9s2.3-.5,3.1-1.5c.8-1,1.4-2.5,1.6-4.3l.5-3.3Z"/>
    <path class="cls-2" d="M306.4,28.9c-.3,2.3-.2,3.9.3,4.7.5.8,1.6,1.2,3.2,1.2s.3,0,.5,0c.2,0,.4,0,.5,0l-.9,6.2c-.4,0-.8,0-1.2.1s-1,0-1.8,0c-3.5,0-5.9-.7-7.1-2.1-1.2-1.4-1.6-3.8-1.1-7.3l1.9-13.8h-4.1l.7-5.3h4.1l1.4-10h7.3l-1.4,10h5.1l-.7,5.3h-5.1l-1.6,11.1Z"/>
    <path class="cls-2" d="M314.3,40.4l3.9-27.9h7.3l-3.9,27.9h-7.3ZM319,7.4l.9-6.3h7.3l-.9,6.3h-7.3Z"/>
    <path class="cls-2" d="M349.2,28.8c-.6,4.1-1.9,7.2-4,9.2-2.1,2-5,3-8.6,3s-6.3-1-7.8-3c-1.5-2-2-5.1-1.4-9.2l.7-4.7c.6-4.1,1.9-7.2,4-9.2,2.1-2,5-3,8.6-3s6.3,1,7.8,3c1.5,2,2,5.1,1.4,9.2l-.7,4.7ZM335.1,26.5c-.5,3.9-.6,6.3-.3,7.3.4,1,1.2,1.5,2.5,1.5s2.3-.5,2.9-1.4c.6-.9,1.2-3.4,1.8-7.3.6-3.9.6-6.4.3-7.3-.4-1-1.2-1.4-2.5-1.4s-2.3.5-3,1.5c-.6,1-1.2,3.4-1.8,7.3Z"/>
    <path class="cls-2" d="M351.8,40.4l3.9-27.9h7.3l-.7,5.3c1.7-2,3.3-3.5,4.8-4.5,1.5-1,3.1-1.4,4.7-1.4s3.3.6,4.1,1.8c.9,1.2,1.1,2.8.8,5l-3.1,21.8h-7.3l2.4-17.4c.3-1.8.3-3,0-3.5-.3-.5-.9-.8-1.8-.8s-1.5.2-2.4.7c-.9.5-1.9,1.2-2.9,2.1l-2.7,19h-7.3Z"/>
  </g>
</svg>